# xmcd
#
# Track frame offsets: 
#        150
#        14199
#        27833
#        77406
#        88428
#        106654
#        156324
#        172266
#        190049
#        203807
#        218753
#        240957
#        280274
#        291828
#        303382
#
# Disc length: 4498 seconds
#
# Revision: 0
# Processed by: cddbd v1.5.2PL0 Copyright (c) Steve Scherf et al.
# Submitted via: ExactAudioCopy v0.95b3
#
DISCID=ce11900f
DTITLE=Jimi Hendrix  - In the Studio Reclamation 1967-1970 - Disc 10  
DTITLE=FLAC
DYEAR=1900
DGENRE=
TTITLE0=Hey Joe
TTITLE1=Purple Haze
TTITLE2=Red House
TTITLE3=Crosstown Traffic
TTITLE4=Takin' Care Of Business
TTITLE5=I Don't Live Today
TTITLE6=Wind Cries Mary
TTITLE7=One Rainy Wish (alternate mix)
TTITLE8=La Poupee Qui Fait Non
TTITLE9=51st Anniversary
TTITLE10=51st Anniversary
TTITLE11=Can You See Me
TTITLE12=Can You See Me
TTITLE13=Fire
TTITLE14=Fire
EXTD=
EXTT0=
EXTT1=
EXTT2=
EXTT3=
EXTT4=
EXTT5=
EXTT6=
EXTT7=
EXTT8=
EXTT9=
EXTT10=
EXTT11=
EXTT12=
EXTT13=
EXTT14=
PLAYORDER=
